<?xml version="1.0" standalone="no"?>
<!DOCTYPE svg PUBLIC "-//W3C//DTD SVG 20010904//EN"
 "http://www.w3.org/TR/2001/REC-SVG-20010904/DTD/svg10.dtd">
<svg version="1.0" xmlns="http://www.w3.org/2000/svg"
 width="700.000000pt" height="700.000000pt" viewBox="0 0 700.000000 700.000000"
 preserveAspectRatio="xMidYMid meet">
<metadata>
Created by potrace 1.11, written by Peter Selinger 2001-2013
</metadata>
<g transform="translate(0.000000,700.000000) scale(0.100000,-0.100000)"
fill="#000000" stroke="none">
<path d="M1529 6996 c-2 -2 -40 -6 -85 -10 -45 -3 -103 -10 -130 -16 -27 -5
-60 -12 -74 -14 -135 -25 -249 -107 -288 -206 -16 -42 -17 -133 -17 -1361 l0
-1316 28 -36 c55 -73 159 -72 215 2 l27 34 2 1276 c0 702 2 1283 2 1292 4 78
656 115 951 54 109 -22 120 -29 121 -72 0 -21 1 -643 2 -1383 2 -1282 3 -1346
20 -1372 38 -56 106 -76 170 -51 32 13 75 67 309 392 150 207 316 437 370 511
54 74 147 203 206 285 60 83 252 348 427 590 175 242 338 467 362 500 105 147
356 493 379 524 63 79 203 105 584 105 288 0 475 -20 552 -60 24 -12 27 -19
23 -45 -10 -56 -32 -107 -79 -186 -112 -185 -85 -148 -363 -513 -213 -279
-472 -620 -521 -685 -30 -38 -64 -83 -77 -100 -12 -16 -199 -262 -415 -545
-215 -283 -401 -526 -411 -540 -97 -125 -169 -224 -170 -234 0 -6 -2 -21 -5
-34 -8 -44 -31 -7 631 -1007 142 -214 322 -487 400 -605 78 -118 230 -348 337
-510 107 -162 297 -449 421 -637 236 -357 345 -552 354 -634 5 -41 3 -46 -20
-56 -83 -38 -274 -57 -562 -57 -319 0 -496 20 -568 61 -26 16 -160 192 -185
243 -12 25 -1922 2891 -1935 2905 -61 60 -165 49 -213 -22 -18 -27 -19 -73
-21 -1553 -1 -839 -2 -1533 -2 -1542 -3 -57 -207 -92 -541 -92 -256 0 -435 22
-503 61 l-31 18 0 1285 c-1 1241 -2 1286 -20 1316 -54 90 -183 87 -234 -5 -20
-36 -20 -54 -19 -1346 l2 -1310 24 -52 c51 -113 165 -178 386 -218 107 -20
547 -28 706 -13 277 26 431 103 485 244 18 47 19 103 19 1361 0 992 3 1309 12
1300 6 -7 182 -268 390 -582 209 -314 612 -919 895 -1345 284 -426 531 -791
549 -811 92 -98 207 -142 432 -166 151 -16 762 -8 818 11 8 3 32 7 54 10 56 7
142 34 196 62 131 66 190 207 153 365 -35 151 -124 307 -466 824 -634 958
-778 1177 -778 1185 0 4 -4 10 -8 12 -4 2 -46 62 -93 133 -47 72 -99 150 -115
174 -16 24 -34 51 -39 60 -12 19 -198 299 -411 621 -82 124 -160 242 -172 262
l-23 37 109 143 c313 411 729 958 812 1068 52 69 97 127 100 130 4 3 26 32 50
65 24 33 48 65 52 70 14 17 128 166 233 305 55 73 105 137 110 144 6 6 44 56
85 111 42 55 109 145 151 200 140 186 266 406 293 511 9 34 16 91 16 127 0 88
-44 175 -114 228 -55 42 -169 83 -272 99 -38 6 -85 13 -104 16 -61 10 -591 12
-690 2 -198 -18 -337 -68 -421 -150 -24 -24 -80 -92 -123 -153 -44 -60 -103
-141 -131 -180 -28 -38 -386 -532 -794 -1097 -409 -566 -746 -1028 -749 -1028
-4 0 -7 525 -7 1168 l0 1167 -30 59 c-35 69 -89 117 -173 151 -67 27 -78 30
-212 51 -84 14 -600 30 -611 20z"/>
<path d="M1005 3622 c-47 -29 -69 -70 -68 -124 3 -139 190 -181 252 -56 10 20
17 50 15 65 -1 15 -2 34 -3 41 -1 7 -16 28 -34 47 -43 45 -115 56 -162 27z"/>
</g>
</svg>
