<svg xmlns="http://www.w3.org/2000/svg" xmlns:xlink="http://www.w3.org/1999/xlink" width="273" height="34" viewBox="0 0 273 34">
  <defs>
    <clipPath id="clip-Landscape_White">
      <rect width="273" height="34"/>
    </clipPath>
  </defs>
  <g id="Landscape_White" clip-path="url(#clip-Landscape_White)">
    <g id="Group_236" data-name="Group 236" transform="translate(-19 7)">
      <g id="Group_1" data-name="Group 1" transform="translate(142 -7)">
        <g id="Webapp" transform="translate(0)">
          <g id="Artboard-Copy-29" transform="translate(0)">
            <g id="gcms1">
              <g id="Group-6">
                <path id="Path" d="M16.177,4.533,12.22,6.8,8.262,9.067,4.3,11.333v13.6l3.958-2.267L12.22,20.4V15.867L8.262,18.133V13.6l3.958-2.267,3.958-2.267v13.6L12.22,24.933,8.262,27.2,4.3,29.467.346,31.733,4.3,34l3.958-2.267,3.958-2.266L16.177,27.2l3.958-2.266V2.267L16.177,0Z" transform="translate(-0.346)" fill="#fff" fill-rule="evenodd"/>
              </g>
              <path id="Shape" d="M75.086,20.413h3.421V34.038A6.247,6.247,0,0,1,76.43,39.1a7.523,7.523,0,0,1-5.008,1.746,8.09,8.09,0,0,1-3.861-.888A6.031,6.031,0,0,1,65,37.357l2.974-1.811a3.663,3.663,0,0,0,3.555,2.012,3.592,3.592,0,0,0,2.605-.918,3.465,3.465,0,0,0,.95-2.611V32.48a5.022,5.022,0,0,1-4.342,2.175,6.227,6.227,0,0,1-4.806-2.133A7.455,7.455,0,0,1,64,27.325a7.43,7.43,0,0,1,1.949-5.178A6.224,6.224,0,0,1,70.744,20a5.021,5.021,0,0,1,4.342,2.176Zm-6.527,9.733a3.925,3.925,0,0,0,5.455,0,4.21,4.21,0,0,0,0-5.613,3.925,3.925,0,0,0-5.455,0,4.21,4.21,0,0,0,0,5.613Z" transform="translate(-35.143 -10.933)" fill="#fff"/>
              <path id="Path-2" data-name="Path" d="M104.533,22.643a3.7,3.7,0,0,1,1.633-1.982,4.97,4.97,0,0,1,2.54-.661v3.959a4.163,4.163,0,0,0-2.9.663,3.165,3.165,0,0,0-1.277,2.84v6.591H101V20.286h3.533Z" transform="translate(-55.37 -10.933)" fill="#fff" fill-rule="evenodd"/>
              <path id="Shape-2" data-name="Shape" d="M131.016,20.395h3.491V34.112h-3.491V32.5a5.3,5.3,0,0,1-4.427,2.007,6.107,6.107,0,0,1-4.649-2.1A7.317,7.317,0,0,1,120,27.253,7.319,7.319,0,0,1,121.94,22.1a6.108,6.108,0,0,1,4.649-2.1,5.3,5.3,0,0,1,4.427,2.007Zm-6.464,9.651a3.594,3.594,0,0,0,2.689,1.086,3.64,3.64,0,0,0,2.7-1.086,3.807,3.807,0,0,0,1.073-2.792,3.806,3.806,0,0,0-1.073-2.792,3.64,3.64,0,0,0-2.7-1.087,3.594,3.594,0,0,0-2.689,1.087,3.832,3.832,0,0,0-1.059,2.792A3.833,3.833,0,0,0,124.552,30.046Z" transform="translate(-65.757 -10.933)" fill="#fff"/>
              <path id="Shape-3" data-name="Shape" d="M164.89,20a6.09,6.09,0,0,1,4.676,2.138,7.53,7.53,0,0,1,1.938,5.247,7.528,7.528,0,0,1-1.938,5.247,6.089,6.089,0,0,1-4.676,2.138,5.2,5.2,0,0,1-4.4-2.039v7.215H157V20.4h3.491v1.642A5.193,5.193,0,0,1,164.89,20ZM161.55,30.228a3.562,3.562,0,0,0,2.689,1.106,3.6,3.6,0,0,0,2.7-1.106,3.914,3.914,0,0,0,1.073-2.843,3.914,3.914,0,0,0-1.073-2.843,3.605,3.605,0,0,0-2.7-1.106,3.561,3.561,0,0,0-2.689,1.106,3.943,3.943,0,0,0-1.059,2.843,3.944,3.944,0,0,0,1.059,2.843Z" transform="translate(-85.983 -10.933)" fill="#fff"/>
              <path id="Path-3" data-name="Path" d="M201.829,13.283a5.057,5.057,0,0,1,3.812,1.569,6,6,0,0,1,1.506,4.336v8.758h-3.624V19.639a2.945,2.945,0,0,0-.762-2.184,2.758,2.758,0,0,0-2.032-.757,2.979,2.979,0,0,0-2.258.885,3.707,3.707,0,0,0-.846,2.655v7.708H194V8h3.624v7.275A4.686,4.686,0,0,1,201.829,13.283Z" transform="translate(-106.21 -4.373)" fill="#fff" fill-rule="evenodd"/>
              <path id="Path-4" data-name="Path" d="M234.594,34.5a7.593,7.593,0,0,1-5.409-2.073A6.973,6.973,0,0,1,227,27.252a7.26,7.26,0,0,1,3.834-6.289,7.9,7.9,0,0,1,7.594.018,5.918,5.918,0,0,1,2.479,2.642l-1.557.859a4.37,4.37,0,0,0-1.86-1.98,5.734,5.734,0,0,0-2.9-.734,5.579,5.579,0,0,0-4.036,1.593,5.428,5.428,0,0,0,0,7.782,5.736,5.736,0,0,0,4.749,1.59,5.6,5.6,0,0,0,4.16-2.712l1.586.886a6.518,6.518,0,0,1-2.624,2.628A7.722,7.722,0,0,1,234.594,34.5Z" transform="translate(-124.25 -10.933)" fill="#fff" fill-rule="evenodd"/>
              <path id="Path-5" data-name="Path" d="M275.763,20a4.979,4.979,0,0,1,3.756,1.482,5.531,5.531,0,0,1,1.428,4.006v8.561h-1.837V25.49a3.845,3.845,0,0,0-.927-2.758,3.221,3.221,0,0,0-2.447-.974,3.629,3.629,0,0,0-2.779,1.139,5.066,5.066,0,0,0-1.064,3.554v7.6h-1.838V25.49a3.99,3.99,0,0,0-.871-2.772,3.033,3.033,0,0,0-2.364-.961A3.854,3.854,0,0,0,264,22.91a4.8,4.8,0,0,0-1.161,3.54v7.6H261V20.333h1.837v2A4.747,4.747,0,0,1,267.068,20a4.306,4.306,0,0,1,4.211,2.495A4.892,4.892,0,0,1,275.763,20Z" transform="translate(-142.837 -10.933)" fill="#fff" fill-rule="evenodd"/>
              <path id="Path-6" data-name="Path" d="M308.4,23.923a1.664,1.664,0,0,0,.878,1.474,8.039,8.039,0,0,0,2.13.888l2.5.682a4.541,4.541,0,0,1,2.111,1.231,3.2,3.2,0,0,1,.859,2.33A3.442,3.442,0,0,1,315.4,33.4a6.14,6.14,0,0,1-3.8,1.1,6.776,6.776,0,0,1-3.559-.889,4.8,4.8,0,0,1-2.046-2.3l1.63-.912a3.282,3.282,0,0,0,1.465,1.7,4.872,4.872,0,0,0,2.512.626,4.8,4.8,0,0,0,2.38-.536,1.788,1.788,0,0,0,.96-1.671,1.7,1.7,0,0,0-.867-1.493,7.707,7.707,0,0,0-2.119-.895l-2.5-.682a4.674,4.674,0,0,1-2.122-1.215,3.093,3.093,0,0,1-.87-2.289,3.484,3.484,0,0,1,1.415-2.82A5.513,5.513,0,0,1,311.449,20a6.188,6.188,0,0,1,3.111.764,4.758,4.758,0,0,1,1.975,2.062l-1.609.884q-.838-1.939-3.479-1.942a3.985,3.985,0,0,0-2.147.557A1.775,1.775,0,0,0,308.4,23.923Z" transform="translate(-167.437 -10.933)" fill="#fff" fill-rule="evenodd"/>
            </g>
          </g>
        </g>
      </g>
      <path id="Path_61" data-name="Path 61" d="M1.321,0V-10.909H5.007a4.249,4.249,0,0,1,2.1.461A2.92,2.92,0,0,1,8.32-9.2a3.83,3.83,0,0,1,.394,1.747A3.885,3.885,0,0,1,8.323-5.7,2.931,2.931,0,0,1,7.116-4.45a4.169,4.169,0,0,1-2.088.466H2.642V0ZM2.642-5.156H4.986a2.329,2.329,0,0,0,1.872-.661,2.459,2.459,0,0,0,.557-1.641A2.408,2.408,0,0,0,6.855-9.09a2.388,2.388,0,0,0-1.891-.647H2.642Zm18.908-.3a6.647,6.647,0,0,1-.623,2.983,4.678,4.678,0,0,1-1.71,1.939,4.572,4.572,0,0,1-2.482.682,4.572,4.572,0,0,1-2.482-.682,4.678,4.678,0,0,1-1.71-1.939,6.647,6.647,0,0,1-.623-2.983,6.647,6.647,0,0,1,.623-2.983,4.678,4.678,0,0,1,1.71-1.939,4.572,4.572,0,0,1,2.482-.682,4.572,4.572,0,0,1,2.482.682,4.678,4.678,0,0,1,1.71,1.939A6.647,6.647,0,0,1,21.55-5.455Zm-1.278,0A5.464,5.464,0,0,0,19.8-7.846a3.458,3.458,0,0,0-1.273-1.475,3.314,3.314,0,0,0-1.792-.5,3.314,3.314,0,0,0-1.792.5,3.458,3.458,0,0,0-1.273,1.475A5.464,5.464,0,0,0,13.2-5.455a5.464,5.464,0,0,0,.471,2.392,3.458,3.458,0,0,0,1.273,1.475,3.314,3.314,0,0,0,1.792.5,3.314,3.314,0,0,0,1.792-.5A3.458,3.458,0,0,0,19.8-3.063,5.464,5.464,0,0,0,20.271-5.455ZM27.247,0,24.264-10.909h1.342l2.28,8.885h.107l2.322-8.885h1.491l2.322,8.885h.107l2.28-8.885h1.342L34.875,0H33.511L31.1-8.693h-.085L28.611,0ZM41,0V-10.909h6.584v1.172H42.32v3.686h4.922v1.172H42.32v3.707h5.348V0Zm10.47,0V-10.909h3.686a4.468,4.468,0,0,1,2.1.434,2.8,2.8,0,0,1,1.214,1.191,3.668,3.668,0,0,1,.394,1.721,3.532,3.532,0,0,1-.5,1.894,2.793,2.793,0,0,1-1.542,1.164L59.288,0H57.754l-2.3-4.267q-.133.005-.277.005H52.79V0ZM52.79-5.455h2.344A2.565,2.565,0,0,0,57-6.019a2.1,2.1,0,0,0,.559-1.545A2.2,2.2,0,0,0,57-9.143a2.517,2.517,0,0,0-1.888-.594H52.79ZM62.557,0V-10.909h6.584v1.172H63.878v3.686H68.8v1.172H63.878v3.707h5.348V0ZM76.393,0H73.027V-10.909h3.516a5.343,5.343,0,0,1,2.717.653,4.309,4.309,0,0,1,1.731,1.87,6.505,6.505,0,0,1,.6,2.911,6.551,6.551,0,0,1-.607,2.932A4.308,4.308,0,0,1,79.217-.658,5.646,5.646,0,0,1,76.393,0ZM74.348-1.172h1.96a3.758,3.758,0,0,0,3.018-1.153,4.684,4.684,0,0,0,.988-3.151A4.665,4.665,0,0,0,79.344-8.6a3.579,3.579,0,0,0-2.887-1.14H74.348ZM91.027,0V-10.909h3.814a4,4,0,0,1,1.88.392,2.608,2.608,0,0,1,1.1,1.049,2.97,2.97,0,0,1,.362,1.457,2.425,2.425,0,0,1-.248,1.161,1.978,1.978,0,0,1-.65.724,2.994,2.994,0,0,1-.871.394v.107a2.137,2.137,0,0,1,1.007.352,2.552,2.552,0,0,1,.847.916,2.9,2.9,0,0,1,.341,1.46,2.93,2.93,0,0,1-.373,1.475A2.575,2.575,0,0,1,97.062-.384,4.889,4.889,0,0,1,94.969,0Zm1.321-1.172h2.621a2.691,2.691,0,0,0,1.84-.5A1.6,1.6,0,0,0,97.355-2.9a1.96,1.96,0,0,0-.282-1.025,2.068,2.068,0,0,0-.8-.756,2.541,2.541,0,0,0-1.236-.285H92.348Zm0-4.943H94.8a2.279,2.279,0,0,0,1.513-.517,1.707,1.707,0,0,0,.618-1.38,1.669,1.669,0,0,0-.5-1.222,2.164,2.164,0,0,0-1.587-.5H92.348Zm9-4.794h1.513l3.026,5.092h.128l3.026-5.092h1.513L106.611-4.5V0H105.29V-4.5Z" transform="translate(19 15)" fill="#fff"/>
    </g>
  </g>
</svg>
